<?xml version="1.0" encoding="UTF-8"?>
<svg width="19px" height="19px" viewBox="0 0 19 19" version="1.1" xmlns="http://www.w3.org/2000/svg" xmlns:xlink="http://www.w3.org/1999/xlink">
    <!-- Generator: Sketch 60.1 (88133) - https://sketch.com -->
    <title>Whatsapp</title>
    <desc>Created with Sketch.</desc>
    <g id="Whatsapp" stroke="none" stroke-width="1" fill="none" fill-rule="evenodd">
        <g id="whatsapp" fill-rule="nonzero">
            <path d="M16.2447979,2.73045833 C14.4398203,0.985625 12.0648499,0 9.53550637,0 C2.27601335,0 -2.2823466,7.86520833 1.34264996,14.12175 L0,19 L5.01514594,17.6921667 C7.20011875,18.8725417 8.99005482,18.7680417 9.54025631,18.8377083 C17.9579432,18.8377083 22.1481828,8.65370833 16.232923,2.76133333 L16.2447979,2.73045833 Z" id="Path" fill="#ECEFF1"></path>
            <path d="M10.0005202,17 L9.99568942,16.9991913 L9.98280743,16.9991913 C7.42090191,16.9991913 5.78408421,15.7805144 5.62305935,15.7101594 L2.60384322,16.49862 L3.41299315,13.5509906 L3.22056844,13.2477366 C2.42349538,11.9732609 2,10.5055113 2,8.99409309 C2,1.88339213 10.6510606,-1.67236268 15.6573235,3.35356777 C20.6515095,8.32693418 17.1451932,17 10.0005202,17 Z" id="Path" fill="#4CAF50"></path>
            <path d="M14.494838,11.3889375 L14.4874269,11.4491754 C14.2395688,11.3286996 13.0323929,10.7528252 12.8075914,10.6733111 C12.3028173,10.4909911 12.4452739,10.6443969 11.4760747,11.727073 C11.3319712,11.8836915 11.1886911,11.8957391 10.9441268,11.7873109 C10.6970921,11.6668351 9.90411095,11.4138358 8.96537933,10.5946003 C8.23415681,9.95607841 7.74338133,9.17298558 7.59845434,8.93203394 C7.35718384,8.52562884 7.86195795,8.46780045 8.32144238,7.61965067 C8.40378726,7.45098452 8.36179137,7.31846112 8.30085616,7.19878847 C8.2390975,7.07831265 7.74749857,5.89764961 7.54163637,5.42699074 C7.34400866,4.95793821 7.14061681,5.01737295 6.98827878,5.01737295 C6.51397228,4.97721434 6.16730034,4.98363972 5.86180084,5.29366417 C4.53275449,6.71849153 4.86789815,8.18829654 6.00508093,9.75126952 C8.23992095,12.6041369 9.4306279,13.1294115 11.6078265,13.8586918 C12.1957689,14.0410119 12.7318341,14.0153104 13.1559102,13.9558757 C13.6285698,13.882787 14.6109442,13.3767885 14.815983,12.8105522 C15.0259624,12.2443158 15.0259624,11.7744601 14.9642038,11.6660319 C14.9032686,11.5576037 14.7418726,11.4973657 14.494838,11.3889375 L14.494838,11.3889375 Z" id="Path" fill="#FAFAFA"></path>
        </g>
    </g>
</svg>